<svg xmlns="http://www.w3.org/2000/svg" viewBox="0 0 64 64">
  <style>
    .paper {
      fill: #fdf6e3;
    }
    .fold {
      fill: #eee8d5;
    }
    .outline {
      stroke: #d3cbb3;
    }
    .line {
      stroke: #268bd2;
    }
    .dot {
      fill: #2aa198;
    }
    .label {
      fill: #073642;
      font-family: ui-monospace, SFMono-Regular, Menlo, Monaco, Consolas, monospace;
      font-size: 12px;
      font-weight: 700;
      letter-spacing: 0;
    }
    @media (prefers-color-scheme: dark) {
      .paper {
        fill: #111317;
      }
      .fold {
        fill: #1e242a;
      }
      .outline {
        stroke: #3a444e;
      }
      .line {
        stroke: #6ee7ff;
      }
      .dot {
        fill: #8bd5ca;
      }
      .label {
        stroke: #f4f7ff;
        fill: #f4f7ff;
      }
    }
  </style>
  <path class="paper" d="M16 5h24l13 13v35a6 6 0 0 1-6 6H16a6 6 0 0 1-6-6V11a6 6 0 0 1 6-6Z" />
  <path class="fold" d="M40 5v10a3 3 0 0 0 3 3h10L40 5Z" />
  <path
    class="outline"
    d="M16 5h24l13 13v35a6 6 0 0 1-6 6H16a6 6 0 0 1-6-6V11a6 6 0 0 1 6-6Z"
    fill="none"
    stroke-width="3"
    stroke-linejoin="round"
  />
  <path class="outline" d="M40 5v10a3 3 0 0 0 3 3h10" fill="none" stroke-width="3" stroke-linejoin="round" />
  <circle class="dot" cx="19" cy="25" r="2.5" />
  <path class="line" d="M27 25h17" fill="none" stroke-width="4" stroke-linecap="round" />
  <circle class="dot" cx="19" cy="35" r="2.5" />
  <path class="line" d="M27 35h13" fill="none" stroke-width="4" stroke-linecap="round" />
  <text class="label" x="17" y="51">.log</text>
</svg>
